<?xml version="1.0" standalone="no"?>
<!DOCTYPE svg PUBLIC "-//W3C//DTD SVG 20010904//EN"
 "http://www.w3.org/TR/2001/REC-SVG-20010904/DTD/svg10.dtd">
<svg version="1.0" xmlns="http://www.w3.org/2000/svg"
 width="500.000000pt" height="500.000000pt" viewBox="0 0 500.000000 500.000000"
 preserveAspectRatio="xMidYMid meet">
<metadata>
Created by potrace 1.14, written by Peter Selinger 2001-2017
</metadata>
<g transform="translate(0.000000,500.000000) scale(0.100000,-0.100000)"
fill="#000000" stroke="none">
<path d="M421 4415 c-260 -64 -426 -290 -420 -575 4 -177 48 -340 204 -740
104 -269 143 -415 151 -560 10 -171 -19 -289 -162 -669 -120 -317 -138 -373
-183 -572 -14 -64 -13 -212 3 -289 36 -172 143 -312 291 -381 44 -20 104 -42
133 -48 65 -14 201 -14 307 -1 44 5 100 12 125 15 25 3 56 7 70 9 25 5 63 11
138 22 20 3 105 16 187 29 83 13 170 27 195 30 25 3 88 12 140 20 100 15 153
22 223 30 23 3 58 7 77 10 19 2 64 7 100 10 36 3 85 8 110 10 239 23 603 23
787 0 15 -2 64 -6 108 -10 44 -3 87 -8 95 -10 8 -2 40 -7 70 -10 93 -10 369
-48 430 -59 14 -3 72 -12 130 -21 58 -8 195 -29 305 -46 360 -54 509 -50 650
15 83 40 140 83 193 151 87 110 117 206 117 370 0 202 -26 302 -189 728 -130
341 -168 484 -167 634 1 154 57 347 228 783 151 384 171 650 66 852 -75 144
-205 239 -382 279 -50 11 -270 8 -341 -5 -14 -2 -47 -7 -75 -11 -107 -14 -121
-16 -145 -20 -14 -3 -43 -8 -65 -11 -22 -3 -107 -16 -190 -29 -82 -13 -170
-27 -195 -30 -25 -3 -70 -10 -100 -15 -30 -5 -79 -12 -109 -15 -30 -4 -61 -8
-70 -10 -9 -1 -45 -6 -81 -10 -36 -4 -72 -9 -80 -10 -8 -2 -53 -6 -100 -10
-47 -4 -93 -9 -103 -11 -32 -6 -317 -18 -412 -17 -96 0 -352 12 -388 18 -12 2
-53 6 -92 10 -38 3 -101 10 -140 15 -38 5 -92 12 -120 15 -50 6 -79 10 -145
19 -19 2 -125 19 -235 36 -110 17 -216 33 -235 36 -19 2 -60 9 -90 14 -30 5
-75 12 -100 15 -25 4 -58 8 -75 10 -202 28 -354 31 -444 10z"/>
</g>
</svg>
